<?xml version="1.0" encoding="iso-8859-1"?>
<!-- Generator: Adobe Illustrator 19.0.0, SVG Export Plug-In . SVG Version: 6.00 Build 0)  -->
<svg version="1.1" id="Layer_1" xmlns="http://www.w3.org/2000/svg" xmlns:xlink="http://www.w3.org/1999/xlink" x="0px" y="0px"
	 viewBox="0 0 335.18 335.18" style="enable-background:new 0 0 335.18 335.18;" xml:space="preserve">
<g>
	<g>
		<path style="fill:#333E48;" d="M39.229,130.183c-4.201,0-8.137-2.613-9.624-6.797c-1.889-5.315,0.89-11.156,6.205-13.044
			l272.375-96.775c5.313-1.888,11.155,0.89,13.044,6.205c1.889,5.316-0.89,11.156-6.205,13.045L42.648,129.59
			C41.519,129.991,40.364,130.183,39.229,130.183z"/>
		<path style="fill:#1E252B;" d="M39.229,137.845c-7.352,0-14.24-4.571-16.843-11.895c-3.305-9.302,1.557-19.522,10.858-22.828
			l77.649-27.589c9.306-3.304,19.522,1.557,22.828,10.859c3.305,9.302-1.557,19.522-10.858,22.828l-77.649,27.589
			C43.234,137.511,41.215,137.845,39.229,137.845z"/>
	</g>
	<path style="fill:#005CB9;" d="M335.18,296.669c0,14.044-11.49,25.535-25.535,25.535H25.535C11.49,322.204,0,310.713,0,296.669
		V130.925c0-14.044,11.49-25.535,25.535-25.535h284.109c14.045,0,25.535,11.491,25.535,25.535L335.18,296.669L335.18,296.669z"/>
	<g>
		<path style="fill:#1E252B;" d="M301.934,190.645c0-13.416-10.977-24.392-24.392-24.392H142.899
			c-13.415,0-24.392,10.977-24.392,24.392v85.859c0,13.415,10.977,24.391,24.392,24.391h134.643
			c13.415,0,24.392-10.976,24.392-24.391V190.645z"/>
		<rect x="118.508" y="230.661" style="fill:#333E48;" width="183.426" height="5.825"/>
		<rect x="118.508" y="210.653" style="fill:#333E48;" width="183.426" height="5.825"/>
		<rect x="118.508" y="190.645" style="fill:#333E48;" width="183.426" height="5.824"/>
		<rect x="118.508" y="250.67" style="fill:#333E48;" width="183.426" height="5.824"/>
		<rect x="118.508" y="270.678" style="fill:#333E48;" width="183.426" height="5.825"/>
	</g>
	<g>
		<rect x="21.485" y="130.179" style="fill:#FFFFFF;" width="292.21" height="12.257"/>
		<rect x="160.951" y="130.179" style="fill:#1E252B;" width="13.277" height="12.257"/>
		<rect x="107.327" y="130.179" style="fill:#1E252B;" width="13.278" height="12.257"/>
		<rect x="53.703" y="130.179" style="fill:#1E252B;" width="13.278" height="12.257"/>
		<rect x="214.574" y="130.179" style="fill:#1E252B;" width="13.278" height="12.257"/>
		<rect x="268.198" y="130.179" style="fill:#1E252B;" width="13.278" height="12.257"/>
	</g>
</g>
<circle style="fill:#1E252B;" cx="62.59" cy="247.255" r="21.334"/>
<circle style="fill:#1E252B;" cx="62.59" cy="186.923" r="21.334"/>
<g>
</g>
<g>
</g>
<g>
</g>
<g>
</g>
<g>
</g>
<g>
</g>
<g>
</g>
<g>
</g>
<g>
</g>
<g>
</g>
<g>
</g>
<g>
</g>
<g>
</g>
<g>
</g>
<g>
</g>
</svg>
